<svg width="231" height="294" viewBox="0 0 231 294" fill="none" xmlns="http://www.w3.org/2000/svg">
<path d="M91.1307 54.5419C27.1487 66.0399 -15.691 153.76 5.45077 223.676C17.8762 278.756 52.5562 275.851 71.658 269.854C110.381 261.546 168.28 234.989 192.389 221.822C238.752 201.422 232.632 166.433 225.956 151.72C182.634 64.0371 121.916 51.5745 91.1307 54.5419Z" fill="white" fill-opacity="0.14"/>
<ellipse cx="109.056" cy="284.052" rx="39.5285" ry="8.47039" transform="rotate(-1.04017 109.056 284.052)" fill="url(#paint0_linear)" fill-opacity="0.1"/>
<path d="M70.6177 122.592C73.2622 123.148 71.7371 119.649 70.644 117.83C75.2157 118.097 76.6892 123.666 76.8545 126.417C72.3711 125.422 70.8285 123.452 70.6177 122.592Z" fill="url(#paint1_linear)"/>
<path d="M103.927 272.265C103.927 272.265 105.04 274.12 105.04 274.491C105.04 274.862 97.9927 278.942 97.4363 278.014C96.8798 277.087 97.4363 275.789 97.4363 275.789L103.927 272.265Z" fill="#FFEB3B"/>
<path d="M92.9853 283.207L97.2507 277.458C98.178 279.312 105 273.5 105.409 274.17C109.5 279.5 107.258 279.858 105.5 281C103.46 281.927 103.927 282.094 96.138 284.505C92.874 285.247 92.6762 283.949 92.9853 283.207Z" fill="#D0D9FF"/>
<path d="M113.756 275.974C113.385 275.232 113.756 274.157 113.756 274.157L122.287 273.378C122.287 273.378 122.843 275.232 122.287 275.974C121.731 276.716 114.127 276.716 113.756 275.974Z" fill="#FFFF00"/>
<path d="M113.791 284.052C111.106 283.582 112.438 277.648 113.791 275.582C117.66 276.822 118.675 276.408 122.35 275.582C125.29 280.375 124.135 283.582 122.301 284.052C120.468 284.523 116.477 284.523 113.791 284.052Z" fill="#D0D9FF"/>
<path d="M151.919 171.108C141.867 183.58 133.304 186.186 124.555 184.325L113.386 167.013L81.9265 117.311C78.824 109.058 72.5445 90.5052 72.2467 82.3146C71.9488 74.124 73.7358 68.9118 76.5281 64.6304C77.8311 61.8381 79.1342 59.6043 78.2035 56.0675C76.2675 46.6855 79.7547 39.5002 81.7403 37.0802C86.8036 31.0421 93.84 30.0065 96.8185 30.5649C99.7969 31.4957 103.892 33.5433 108.918 33.171C119.789 31.2351 123.996 36.7079 128.464 44.7123C130.325 47.5046 139.042 54.2599 140.159 65.6151C140.718 72.5026 139.414 79.7625 142.239 85.1069L150.802 102.791C156.573 112.285 153.594 121.22 153.594 121.22C151.174 128.48 149.313 131.086 152.663 140.207C156.573 155.844 154.897 166.641 151.919 171.108Z" fill="url(#paint2_linear)"/>
<path d="M125.341 126.924L78.0584 131.578C74.1865 146.47 70.9847 155.777 69.8678 158.569C64.6556 179.232 66.5172 179.046 70.6124 193.007L83.6429 236.194L95.9288 276.216C96.3756 276.961 97.2319 276.775 97.6042 276.588L104.492 273.052C103.598 262.627 98.659 223.039 96.3011 204.548C95.1842 191.146 94.8119 184.816 94.8119 182.583L99.838 174.578L105.609 214.042C107.656 224.466 111.379 246.432 112.682 273.052C112.831 274.243 113.241 274.541 113.613 274.541H120.873C122.511 274.69 122.921 274.106 122.921 273.796C122.921 273.796 127.165 191.406 127.388 188.353C129.772 155.777 128.133 148.145 125.341 126.924Z" fill="url(#paint3_linear)"/>
<path d="M154.419 14.9914C154.648 15.0137 155.48 13.287 155.447 13.1304C155.414 12.9738 142.162 6.39955 142.162 6.39955L141.362 8.50785C141.362 8.50785 154.189 14.9692 154.419 14.9914Z" fill="#373535"/>
<path d="M145.624 4.62629C145.632 4.37568 146.262 3.87828 146.573 4.56414C146.885 5.25 147.218 7.14225 147.218 7.14225C147.218 7.14225 148.055 5.65818 148.502 4.91425C148.7 4.65955 149.648 4.59267 149.468 5.55853C149.468 5.55853 148.205 7.7406 148.256 8.45319C148.5 8.50006 149.508 9.10673 149.5 9.50006C149.492 9.89339 149.5 10.0001 149.5 10.5001C149.5 11.0001 148.982 11.1951 148.84 10.7912C148.698 10.3872 149 10.5118 148.256 9.44147C147 9.00006 146.401 8.48108 145.91 8.2774L145.91 10.7912L149.726 12.6952L149.598 14.3711L146.168 12.9282L145.91 10.7912L145.91 8.2774C145.91 8.2774 145.617 4.8769 145.624 4.62629Z" fill="#F7B67C"/>
<ellipse cx="140.239" cy="6.85106" rx="3.56559" ry="3.8033" transform="rotate(-68.1377 140.239 6.85106)" fill="url(#paint4_linear)"/>
<rect x="144.787" y="12.1663" width="8.81813" height="1.70754" rx="0.85377" transform="rotate(24.2266 144.787 12.1663)" fill="#FFD54F"/>
<path d="M75.5532 122.054L77.3772 130.843C77.4479 131.184 77.6935 131.465 78.022 131.58C100.227 139.333 121.528 132.35 125.513 128.25C125.647 128.113 125.717 127.944 125.742 127.754C129.001 103.17 137.131 64.9163 137.872 59.9098C140.31 50.2474 146.008 32.9073 152.712 18.2067C152.944 17.6973 152.716 17.0966 152.203 16.8715L144.286 13.3944C143.787 13.1754 143.205 13.3958 142.976 13.8902L136.501 27.892C129.934 44.5261 118.305 60.612 112.994 66.9748C112.79 67.219 112.483 67.3426 112.165 67.3213C98.9002 66.4286 90.3045 66.5248 79.0654 74.3699C79.0095 74.4089 78.9617 74.4494 78.9145 74.4985C75.9929 77.5369 61.9946 88.1559 61.2015 91.439C61.1819 91.5202 61.1611 91.5961 61.1291 91.6732C55.2453 105.813 67.7811 118.164 74.9496 121.319C75.2582 121.455 75.4846 121.724 75.5532 122.054Z" fill="url(#paint5_linear)"/>
<ellipse cx="103.168" cy="54.1377" rx="9.6798" ry="13.2167" fill="#FFC087"/>
<path d="M96.5245 151.47L99.4922 151.031L100.5 179.5L96.5245 151.47Z" fill="url(#paint6_linear)"/>
<path d="M121.5 55.4999C116.879 63.2013 117.5 61.9999 114.508 66.0084L104.693 78.8821C104.693 78.8821 101.076 84.6285 104 78.9999C105.458 76.1932 120.807 57.3823 121.5 55.4999Z" fill="url(#paint7_linear)"/>
<path d="M74.2019 94.0384C75.5814 102.913 75.233 102.005 75.5 107C75.5 111 75.7993 118 76.2563 122.761C76.5 127 77.156 129.491 75.7993 123.295C74.5 119.5 74.8744 95.9282 74.2019 94.0384Z" fill="url(#paint8_linear)"/>
<path d="M145.523 9.13803C145.113 9.62709 145.009 10.2998 145.004 10.3999C145 11 146 11.5 146 11.5L146.5 11.5C147 11.5 146.523 10.6381 146.585 10.3591C146.647 10.0801 146.827 9.79687 147 9.5C147.211 9.13803 147.523 8.13803 146.844 8.13807C146.165 8.13811 145.934 8.64898 145.523 9.13803Z" fill="url(#paint9_linear)"/>
<defs>
<linearGradient id="paint0_linear" x1="126.31" y1="266.952" x2="112.564" y2="280.563" gradientUnits="userSpaceOnUse">
<stop stop-opacity="0.15"/>
<stop offset="1"/>
</linearGradient>
<linearGradient id="paint1_linear" x1="77.6452" y1="118.88" x2="69.1748" y2="125.939" gradientUnits="userSpaceOnUse">
<stop stop-color="#DB874A"/>
<stop offset="1" stop-color="#F1BD8D"/>
</linearGradient>
<linearGradient id="paint2_linear" x1="160.077" y1="123.322" x2="103.998" y2="128.291" gradientUnits="userSpaceOnUse">
<stop stop-color="#304BE0"/>
<stop offset="1" stop-color="#001BAE"/>
</linearGradient>
<linearGradient id="paint3_linear" x1="97.6101" y1="126.924" x2="97.6101" y2="276.755" gradientUnits="userSpaceOnUse">
<stop stop-color="#4057D6"/>
<stop offset="1" stop-color="#131E8E"/>
</linearGradient>
<linearGradient id="paint4_linear" x1="141.401" y1="3.43399" x2="137.136" y2="8.91654" gradientUnits="userSpaceOnUse">
<stop stop-color="#FF8F00"/>
<stop offset="1" stop-color="#E65100"/>
</linearGradient>
<linearGradient id="paint5_linear" x1="82.8216" y1="150.879" x2="128.468" y2="90.1747" gradientUnits="userSpaceOnUse">
<stop stop-color="#FDD835"/>
<stop offset="1" stop-color="#F9A825"/>
</linearGradient>
<linearGradient id="paint6_linear" x1="90.5" y1="164.5" x2="99" y2="163" gradientUnits="userSpaceOnUse">
<stop stop-opacity="0.57"/>
<stop offset="1" stop-opacity="0"/>
</linearGradient>
<linearGradient id="paint7_linear" x1="104" y1="60" x2="113.5" y2="67.5" gradientUnits="userSpaceOnUse">
<stop/>
<stop offset="1" stop-opacity="0"/>
</linearGradient>
<linearGradient id="paint8_linear" x1="63.6373" y1="108.698" x2="75.5" y2="108" gradientUnits="userSpaceOnUse">
<stop/>
<stop offset="1" stop-opacity="0"/>
</linearGradient>
<linearGradient id="paint9_linear" x1="146" y1="8.5" x2="146.5" y2="11.5" gradientUnits="userSpaceOnUse">
<stop stop-color="#FFCEA3"/>
<stop offset="1" stop-color="#F7B67C"/>
</linearGradient>
</defs>
</svg>
