<svg width="36" height="36" viewBox="0 0 36 36" fill="none" xmlns="http://www.w3.org/2000/svg">
<path d="M18 21C20.49 21 22.5 18.99 22.5 16.5V7.5C22.5 5.01 20.49 3 18 3C15.51 3 13.5 5.01 13.5 7.5V16.5C13.5 18.99 15.51 21 18 21ZM26.865 16.5C26.13 16.5 25.515 17.04 25.395 17.775C24.78 21.3 21.705 24 18 24C14.295 24 11.22 21.3 10.605 17.775C10.485 17.04 9.87 16.5 9.135 16.5C8.22 16.5 7.5 17.31 7.635 18.21C8.37 22.71 11.97 26.235 16.5 26.88V30C16.5 30.825 17.175 31.5 18 31.5C18.825 31.5 19.5 30.825 19.5 30V26.88C24.03 26.235 27.63 22.71 28.365 18.21C28.515 17.31 27.78 16.5 26.865 16.5Z" fill="black" fill-opacity="0.3"/>
</svg>
